<?xml version="1.0" standalone="no"?>
<!DOCTYPE svg PUBLIC "-//W3C//DTD SVG 20010904//EN"
        "http://www.w3.org/TR/2001/REC-SVG-20010904/DTD/svg10.dtd">
<svg version="1.0" xmlns="http://www.w3.org/2000/svg"
     width="1104.000000pt" height="1104.000000pt" viewBox="0 0 1104.000000 1104.000000"
     preserveAspectRatio="xMidYMid meet">

    <g transform="translate(0.000000,1104.000000) scale(0.100000,-0.100000)"
       fill="#000000" stroke="none">
        <path d="M1832 10899 c-130 -5 -209 -12 -218 -20 -12 -10 -14 -675 -15 -4683
0 -2569 -4 -4779 -8 -4911 -4 -132 -5 -243 -1 -247 3 -4 1828 -8 4055 -8
l4050 -1 -4 288 c-2 158 -8 296 -12 305 -8 16 -31 18 -202 20 l-192 3 -5 542
c-4 415 -8 545 -17 555 -7 6 -14 10 -15 8 -2 -3 -5 -252 -8 -555 l-5 -550
-143 -3 c-109 -2 -143 0 -146 10 -2 7 -11 522 -20 1143 -18 1233 -34 1912 -45
1934 -23 41 -22 -350 9 -2309 5 -344 10 -660 10 -702 l0 -78 -164 0 -164 0 -6
173 c-3 94 -10 469 -16 832 -14 878 -28 1635 -44 2278 -13 538 -14 546 -48
547 -11 0 -10 -538 2 -1330 18 -1246 30 -1935 36 -2217 l7 -283 -170 0 -170 0
-6 332 c-4 182 -7 541 -7 797 0 632 -18 2188 -26 2281 -21 224 -24 -124 -19
-1702 l7 -1708 -210 0 -209 0 -5 991 c-5 939 -8 1039 -32 1001 -3 -6 -9 -454
-13 -996 l-6 -986 -197 0 -197 0 -7 208 c-11 332 -18 394 -45 378 -8 -5 -11
-95 -11 -295 l0 -288 -52 -6 c-28 -4 -53 -5 -55 -3 -2 1 -10 209 -18 461 -8
252 -19 463 -24 468 -5 5 -15 6 -21 2 -9 -6 -10 -115 -5 -473 l8 -465 -591 5
c-326 2 -594 7 -598 11 -8 7 -28 826 -21 833 3 3 103 11 221 16 l217 11 30
-29 c50 -48 87 -112 94 -162 9 -67 21 -84 34 -49 17 43 13 108 -9 179 -24 78
-24 75 1 52 44 -39 100 -126 107 -165 4 -22 12 -40 17 -40 18 1 16 75 -4 146
-11 38 -18 72 -15 74 2 3 19 -1 37 -7 19 -7 41 -12 49 -12 20 0 74 -44 89 -73
6 -11 15 -52 18 -91 l8 -71 18 40 c53 118 18 215 -104 293 -61 39 -122 55
-159 41 -13 -5 -126 -14 -250 -19 -125 -5 -266 -12 -313 -15 l-87 -6 -6 258
c-3 142 -8 319 -11 393 l-6 136 128 39 c137 42 394 164 513 244 177 119 322
250 438 396 53 66 122 149 153 185 31 36 76 94 99 130 l42 65 -6 -55 c-4 -31
-29 -120 -56 -199 -27 -79 -47 -148 -44 -152 21 -35 58 17 137 195 48 108 50
114 58 241 5 71 13 173 18 225 6 52 11 102 11 110 0 26 17 -4 44 -80 32 -91
56 -206 56 -266 0 -32 4 -44 15 -44 24 0 27 58 10 235 l-16 170 -61 125 c-34
69 -64 129 -66 133 -12 24 42 -20 95 -76 63 -68 155 -235 170 -310 12 -55 28
-41 27 23 -2 90 -105 326 -173 395 -40 41 -179 125 -207 125 -18 0 -196 183
-255 261 -73 98 -86 199 -40 303 35 81 96 122 218 150 102 23 169 20 260 -9
61 -20 110 -28 228 -34 198 -11 337 -46 510 -126 162 -75 378 -158 414 -159
29 -1 37 3 39 19 4 32 -177 191 -351 306 -211 141 -400 275 -419 296 -8 10
-25 51 -37 91 -45 150 -150 218 -372 237 -88 8 -198 -7 -274 -37 -47 -19 -57
-20 -191 -8 -260 24 -366 4 -502 -94 -155 -112 -301 -255 -271 -265 6 -2 27
13 47 32 82 79 226 176 301 204 72 27 84 28 239 27 89 -1 165 -4 169 -8 4 -3
-8 -21 -27 -39 -18 -17 -66 -79 -106 -137 -41 -58 -78 -110 -84 -117 -5 -7
-63 -48 -127 -92 -139 -94 -231 -170 -280 -232 -67 -83 -137 -263 -131 -336 4
-50 31 -53 35 -3 1 19 25 80 52 136 40 80 67 118 134 189 l83 89 -4 -70 c-3
-55 -13 -90 -50 -174 l-47 -105 1 -115 c1 -121 15 -212 39 -244 23 -31 37 -8
24 39 -19 68 -5 236 29 338 l29 88 54 -118 c30 -64 90 -172 134 -240 199 -305
231 -382 183 -453 -56 -84 -185 -107 -399 -72 -418 70 -755 86 -945 44 -146
-32 -348 -98 -434 -143 -87 -45 -354 -254 -515 -404 -60 -57 -141 -129 -180
-160 -205 -166 -620 -569 -702 -683 -25 -34 -64 -106 -88 -160 -85 -197 -86
-282 0 -298 44 -8 94 16 296 138 86 53 185 105 220 117 107 37 444 53 754 37
154 -8 167 -7 350 23 105 18 219 39 255 46 36 7 67 12 69 9 3 -2 -18 -28 -45
-57 -28 -28 -122 -135 -210 -237 -87 -102 -223 -258 -301 -347 -79 -90 -143
-169 -143 -176 0 -7 7 -23 17 -36 l16 -24 236 6 c130 3 292 11 361 16 69 5
155 12 191 14 l67 5 7 -327 c7 -282 3 -496 -8 -508 -9 -9 -520 -5 -544 4 -10
4 -13 55 -13 227 0 121 -5 228 -10 236 -23 36 -30 -13 -32 -235 l-3 -230 -130
0 -130 0 -7 300 c-5 165 -10 306 -13 314 -4 10 -9 11 -16 4 -7 -7 -10 -109 -7
-312 l3 -301 -87 0 -88 0 0 448 c0 246 -3 464 -6 484 -18 107 -24 -6 -24 -447
l0 -485 -280 0 -280 0 0 139 c0 78 -4 142 -9 146 -20 12 -32 -40 -38 -161 l-6
-124 -82 0 -82 0 -6 402 c-6 365 -12 440 -31 410 -3 -6 -9 -192 -13 -415 l-6
-404 -59 -9 c-33 -6 -61 -7 -64 -2 -7 12 -41 10 -63 -4 -10 -6 -25 -9 -34 -5
-13 5 -15 62 -18 445 -2 242 -7 443 -11 447 -25 25 -28 -24 -28 -404 0 -219
-3 -419 -6 -445 l-7 -46 -183 0 c-135 0 -185 3 -191 13 -4 6 -6 1468 -5 3247
3 3031 0 3540 -18 3540 -15 0 -19 -298 -30 -2790 -6 -1405 -14 -2881 -18
-3280 l-7 -725 -179 -3 c-99 -1 -183 1 -188 6 -4 4 -4 1252 2 2773 10 2563 4
4529 -13 4545 -16 16 -21 -16 -28 -184 -10 -243 -29 -2901 -37 -5217 l-7
-1920 -188 -3 -187 -2 0 4627 c0 2546 0 4634 0 4641 0 14 -25 14 -348 1z
m5649 -4439 c41 -12 82 -29 92 -38 52 -46 117 -181 117 -243 0 -31 18 -48 25
-25 3 9 7 23 10 31 3 12 31 -4 112 -62 60 -42 194 -134 298 -204 105 -69 210
-148 235 -174 l45 -46 -45 17 c-25 9 -90 37 -145 62 -220 97 -258 112 -376
142 -94 23 -161 33 -274 40 -107 6 -166 14 -205 28 -86 32 -162 36 -265 17
-111 -20 -169 -45 -218 -93 -50 -48 -73 -93 -87 -170 -12 -68 -2 -149 24 -200
24 -47 93 -131 192 -233 99 -103 130 -154 190 -312 34 -90 35 -92 23 -166 -20
-134 -125 -386 -202 -483 -153 -194 -290 -358 -333 -399 -86 -81 -191 -166
-270 -219 -89 -61 -307 -179 -396 -215 -151 -62 -372 -115 -768 -185 -281 -50
-336 -54 -508 -39 -180 15 -546 0 -647 -26 -72 -19 -181 -73 -311 -155 -53
-34 -118 -72 -145 -85 -56 -29 -107 -33 -116 -9 -11 28 27 147 82 259 50 103
65 123 199 267 80 85 162 168 183 184 21 15 94 80 163 144 69 64 166 149 215
190 50 41 133 115 185 165 93 89 336 288 434 355 63 43 173 89 306 128 233 69
367 86 555 72 175 -13 453 -46 565 -66 54 -11 122 -15 190 -12 127 4 186 28
237 96 45 60 45 116 0 203 -57 110 -117 211 -185 309 -36 52 -97 161 -134 242
-62 132 -69 153 -71 215 -3 111 6 137 61 171 63 39 186 154 224 211 88 129
221 259 298 294 50 23 236 47 316 42 28 -2 84 -13 125 -25z m-1791 -3479 l0
-380 -42 -5 c-24 -3 -146 -8 -273 -11 -126 -3 -268 -8 -315 -12 l-85 -6 56 64
c30 35 181 207 335 383 153 175 283 325 289 332 5 8 16 14 22 14 10 0 13 -82
13 -379z"/>
        <path d="M4510 960 c-85 -11 -152 -45 -213 -108 -73 -78 -92 -130 -92 -257 0
-124 19 -179 87 -251 67 -71 147 -106 254 -112 167 -9 298 63 363 198 23 49
26 67 26 160 0 77 -5 117 -18 152 -60 155 -221 241 -407 218z m165 -51 c54
-25 89 -65 124 -139 23 -50 26 -67 26 -175 0 -109 -2 -125 -26 -175 -63 -132
-183 -188 -312 -144 -58 20 -111 73 -146 144 -24 50 -26 66 -26 175 1 108 3
126 27 176 29 63 85 124 132 145 49 21 149 18 201 -7z"/>
        <path d="M7713 953 c-41 -112 -240 -588 -259 -620 -19 -33 -33 -45 -65 -53
-73 -20 -39 -32 91 -32 126 -1 167 11 94 29 -61 14 -64 30 -23 146 l36 102
106 3 106 3 35 -108 c39 -121 37 -137 -19 -147 -19 -4 -35 -12 -35 -19 0 -9
41 -12 155 -12 115 0 155 3 155 12 0 7 -17 17 -38 23 -21 5 -48 20 -60 33 -14
15 -67 149 -135 337 -62 173 -118 315 -125 318 -6 2 -15 -5 -19 -15z m33 -273
l42 -120 -94 0 -93 0 30 83 c17 45 38 101 46 125 8 24 18 40 21 37 4 -3 25
-60 48 -125z"/>
        <path d="M9271 948 c-50 -132 -236 -579 -253 -611 -18 -33 -32 -45 -66 -56
-72 -23 -44 -33 88 -33 126 0 165 12 94 29 -61 14 -64 30 -23 146 l36 102 106
3 106 3 35 -108 c39 -121 37 -137 -19 -147 -19 -4 -35 -12 -35 -19 0 -9 41
-12 155 -12 116 0 155 3 155 12 0 7 -12 16 -27 19 -40 10 -83 42 -95 73 -6 14
-59 158 -117 320 -59 162 -112 296 -119 299 -6 2 -16 -7 -21 -20z m37 -270
l41 -118 -94 0 -94 0 23 63 c13 34 34 90 46 125 13 35 26 59 30 55 4 -4 25
-61 48 -125z"/>
        <path d="M8161 883 c-12 -39 -24 -79 -27 -87 -4 -11 -1 -16 10 -16 9 0 16 4
16 10 0 20 66 84 105 101 26 12 64 19 107 19 62 0 68 -2 73 -23 3 -12 5 -145
3 -294 -3 -303 -2 -297 -74 -318 -20 -5 -35 -14 -35 -19 1 -4 73 -9 161 -10
121 -1 160 2 160 11 0 7 -12 15 -27 19 -51 10 -72 23 -78 46 -3 13 -4 149 -3
303 l3 280 87 0 c101 0 130 -15 163 -83 11 -23 26 -41 33 -42 6 0 12 3 12 8 0
6 -29 167 -30 167 0 0 -144 0 -319 0 l-319 0 -21 -72z"/>
        <path d="M1630 936 c0 -8 16 -16 39 -20 72 -11 71 -5 71 -312 0 -170 -4 -283
-10 -295 -6 -11 -30 -24 -56 -30 -81 -21 -43 -31 116 -32 160 0 200 11 116 32
-56 14 -58 18 -54 180 l3 123 185 -1 185 0 0 -143 0 -143 -48 -14 c-26 -8 -46
-19 -44 -24 4 -13 310 -12 315 1 1 5 -17 15 -42 21 -26 6 -50 19 -56 30 -6 12
-10 125 -10 295 0 307 -1 301 71 312 23 4 39 12 39 20 0 11 -31 14 -161 14
-121 0 -160 -3 -157 -12 3 -7 20 -16 39 -21 56 -15 58 -18 61 -163 l3 -134
-192 0 -193 0 0 134 c0 148 2 153 64 163 21 3 36 11 36 19 0 11 -31 14 -160
14 -129 0 -160 -3 -160 -14z"/>
        <path d="M2620 936 c0 -8 15 -16 39 -20 73 -11 71 -4 71 -321 0 -284 0 -285
-22 -299 -13 -8 -38 -17 -56 -21 -18 -4 -32 -11 -30 -17 2 -6 108 -9 277 -9
l274 0 34 82 c38 96 37 89 19 89 -8 0 -23 -13 -32 -30 -23 -38 -88 -84 -140
-100 -55 -17 -192 -10 -204 10 -5 8 -10 77 -10 153 l0 137 84 0 c78 0 86 -2
104 -25 11 -14 23 -41 26 -61 4 -20 12 -34 19 -31 7 2 11 44 11 132 0 137 -12
171 -33 91 -6 -26 -19 -50 -30 -56 -11 -5 -56 -10 -100 -10 l-81 0 0 128 c0
86 4 132 12 140 8 8 47 12 108 12 112 0 147 -16 180 -80 11 -22 26 -40 33 -40
11 0 10 15 -3 78 l-16 77 -267 3 c-222 2 -267 0 -267 -12z"/>
        <path d="M3392 938 c2 -6 24 -17 48 -24 23 -7 47 -19 51 -26 5 -7 9 -140 9
-295 0 -282 0 -283 -22 -297 -13 -8 -38 -17 -56 -21 -18 -4 -31 -12 -30 -17 5
-15 321 -15 326 0 1 5 -12 13 -30 17 -18 4 -43 13 -55 21 -22 14 -23 20 -23
150 l0 136 33 -7 c47 -10 70 -36 154 -175 42 -69 82 -131 88 -138 15 -17 207
-20 213 -4 2 6 -12 14 -31 17 -65 12 -95 41 -182 175 -47 71 -85 134 -85 140
0 5 15 16 33 23 45 20 105 89 113 132 16 85 -37 163 -129 190 -64 19 -431 22
-425 3z m360 -28 c72 -20 103 -103 77 -203 -20 -72 -58 -97 -150 -97 l-69 0 0
139 c0 144 3 153 45 164 34 8 59 7 97 -3z"/>
        <path d="M5132 938 c2 -6 25 -17 51 -25 28 -8 51 -22 58 -35 11 -21 8 -231 -8
-467 -6 -108 -17 -124 -82 -135 -25 -4 -41 -11 -39 -18 5 -14 281 -14 286 1 2
5 -13 13 -32 17 -20 3 -47 15 -61 26 -25 19 -25 22 -24 151 1 73 4 185 8 250
l6 119 255 -290 c232 -264 276 -310 286 -299 2 2 7 138 10 303 3 164 10 313
15 331 10 31 47 53 90 53 11 0 19 7 19 15 0 13 -22 14 -142 12 -142 -2 -180
-13 -102 -30 48 -10 72 -31 79 -71 3 -17 5 -123 3 -235 l-3 -204 -243 272
-244 271 -95 0 c-67 0 -94 -3 -91 -12z"/>
        <path d="M6480 936 c0 -8 15 -16 36 -19 76 -12 74 -6 74 -323 0 -283 0 -284
-22 -298 -13 -8 -38 -17 -56 -21 -18 -4 -31 -12 -30 -17 3 -7 80 -11 232 -10
209 0 233 2 299 23 59 19 82 33 128 79 78 76 102 143 97 261 -6 139 -65 232
-186 293 -73 37 -146 46 -369 46 -165 0 -203 -3 -203 -14z m514 -63 c151 -106
184 -343 67 -491 -60 -76 -122 -102 -237 -102 -71 0 -96 4 -108 16 -14 13 -16
55 -16 303 0 222 3 291 13 299 16 14 105 19 181 10 41 -4 71 -15 100 -35z"/>
    </g>
</svg>
